<?xml version="1.0" encoding="iso-8859-1"?>
<!-- Generator: Adobe Illustrator 19.0.0, SVG Export Plug-In . SVG Version: 6.00 Build 0)  -->
<svg version="1.1" id="Capa_1" xmlns="http://www.w3.org/2000/svg" xmlns:xlink="http://www.w3.org/1999/xlink" x="0px" y="0px"
	 viewBox="0 0 512 512" style="enable-background:new 0 0 512 512;" xml:space="preserve">
<g>
	<g>
		<path d="M437.02,74.981C388.667,26.629,324.38,0,256,0C193.371,0,133.084,22.87,86.246,64.396
			c-3.099,2.748-3.384,7.488-0.636,10.588c2.748,3.099,7.487,3.384,10.587,0.636C140.289,36.529,197.041,15,256,15
			c132.888,0,241,108.112,241,241S388.888,497,256,497S15,388.888,15,256c0-58.959,21.529-115.712,60.62-159.803
			c2.748-3.099,2.463-7.84-0.636-10.587c-3.1-2.749-7.84-2.463-10.587,0.636C22.87,133.084,0,193.37,0,256
			c0,68.38,26.629,132.667,74.98,181.019C123.333,485.371,187.62,512,256,512s132.667-26.629,181.02-74.981
			C485.371,388.667,512,324.38,512,256S485.371,123.333,437.02,74.981z"/>
	</g>
</g>
<g>
</g>
<g>
</g>
<g>
</g>
<g>
</g>
<g>
</g>
<g>
</g>
<g>
</g>
<g>
</g>
<g>
</g>
<g>
</g>
<g>
</g>
<g>
</g>
<g>
</g>
<g>
</g>
<g>
</g>
</svg>
