<?xml version="1.0" encoding="UTF-8" standalone="no"?>
<!DOCTYPE svg PUBLIC "-//W3C//DTD SVG 1.1//EN" "http://www.w3.org/Graphics/SVG/1.1/DTD/svg11.dtd">
<svg version="1.1" xmlns="http://www.w3.org/2000/svg" xmlns:xlink="http://www.w3.org/1999/xlink" preserveAspectRatio="xMidYMid meet" viewBox="0 0 1920 1080" width="1920" height="1080"><defs><path d="M413.96 641.12C413.96 743.28 330.38 826.23 227.43 826.23C124.49 826.23 40.91 743.28 40.91 641.12C40.91 538.96 124.49 456.01 227.43 456.01C330.38 456.01 413.96 538.96 413.96 641.12Z" id="cqFQJXgn2"></path><path d="M564.31 823.04C564.31 917.17 492.33 993.6 403.67 993.6C315.02 993.6 243.04 917.17 243.04 823.04C243.04 728.9 315.02 652.47 403.67 652.47C492.33 652.47 564.31 728.9 564.31 823.04Z" id="f4lVO5CIN"></path><path d="M791.97 773.04C791.97 824.7 750.5 866.65 699.42 866.65C648.34 866.65 606.87 824.7 606.87 773.04C606.87 721.37 648.34 679.42 699.42 679.42C750.5 679.42 791.97 721.37 791.97 773.04Z" id="a8mJlNSbL"></path><path d="M418.92 511.69C418.92 572.56 467.7 621.97 527.79 621.97C587.87 621.97 636.65 572.56 636.65 511.69C636.65 450.82 587.87 401.4 527.79 401.4C467.7 401.4 418.92 450.82 418.92 511.69Z" id="cnbuUNZWN"></path><path d="M492.68 410.62C492.68 450.94 460.58 483.67 421.05 483.67C381.52 483.67 349.42 450.94 349.42 410.62C349.42 370.31 381.52 337.57 421.05 337.57C460.58 337.57 492.68 370.31 492.68 410.62Z" id="bakbmwuev"></path><path d="M1410.5 757.74C1399.82 656.13 1308.03 582.38 1205.65 593.14C1103.27 603.9 1028.81 695.13 1039.49 796.73C1050.17 898.33 1141.96 972.09 1244.34 961.32C1346.73 950.56 1421.18 859.34 1410.5 757.74Z" id="a3sOLGGXy"></path><path d="M1541.01 561.1C1531.17 467.48 1451.6 398.99 1363.43 408.26C1275.25 417.53 1211.66 501.06 1221.5 594.68C1231.34 688.31 1310.91 756.79 1399.09 747.52C1487.26 738.26 1550.85 654.72 1541.01 561.1Z" id="eXdYnP3dt"></path><path d="M1772.65 587.03C1767.25 535.64 1721.62 498.26 1670.82 503.6C1620.02 508.94 1583.16 554.99 1588.56 606.38C1593.96 657.76 1639.59 695.15 1690.39 689.81C1741.19 684.47 1778.05 638.42 1772.65 587.03Z" id="bKLkwowis"></path><path d="M1512.88 978.74C1508.67 938.64 1473.33 909.45 1434.01 913.58C1394.69 917.71 1366.19 953.62 1370.41 993.71C1374.62 1033.81 1409.96 1063.01 1449.28 1058.88C1488.6 1054.74 1517.1 1018.84 1512.88 978.74Z" id="a31vr7LuPk"></path><path d="M972 1140.01C972 1268.06 868.94 1372.01 742 1372.01C615.06 1372.01 512 1268.06 512 1140.01C512 1011.97 615.06 908.01 742 908.01C868.94 908.01 972 1011.97 972 1140.01Z" id="ddzRGpLZI"></path><path d="M2108 942.01C2108 1082.2 1997.77 1196.01 1862 1196.01C1726.23 1196.01 1616 1082.2 1616 942.01C1616 801.83 1726.23 688.01 1862 688.01C1997.77 688.01 2108 801.83 2108 942.01Z" id="c3Z48tcrxJ"></path><path d="M1456.97 901.94C1450.6 841.41 1493.95 787.16 1553.71 780.88C1613.46 774.6 1667.14 818.65 1673.5 879.18C1679.87 939.71 1636.52 993.96 1576.76 1000.24C1517.01 1006.52 1463.33 962.47 1456.97 901.94Z" id="e145wObb3J"></path><path d="M60 906.01C60 1112.43 -111.17 1280.01 -322 1280.01C-532.83 1280.01 -704 1112.43 -704 906.01C-704 699.6 -532.83 532.01 -322 532.01C-111.17 532.01 60 699.6 60 906.01Z" id="h1ItAIwJAp"></path></defs><g><g><g><use xlink:href="#cqFQJXgn2" opacity="1" fill="#3ca7cf" fill-opacity="1"></use></g><g><use xlink:href="#f4lVO5CIN" opacity="1" fill="#3e5772" fill-opacity="1"></use></g><g><use xlink:href="#a8mJlNSbL" opacity="1" fill="#bb71d8" fill-opacity="1"></use></g><g><use xlink:href="#cnbuUNZWN" opacity="1" fill="#3fdecc" fill-opacity="1"></use></g><g><use xlink:href="#bakbmwuev" opacity="1" fill="#cae11b" fill-opacity="1"></use></g><g><use xlink:href="#a3sOLGGXy" opacity="1" fill="#cf3c7c" fill-opacity="1"></use></g><g><use xlink:href="#eXdYnP3dt" opacity="1" fill="#509aea" fill-opacity="1"></use></g><g><use xlink:href="#bKLkwowis" opacity="1" fill="#f8ec22" fill-opacity="1"></use></g><g><use xlink:href="#a31vr7LuPk" opacity="1" fill="#e11b1b" fill-opacity="1"></use></g><g><use xlink:href="#ddzRGpLZI" opacity="1" fill="#1b42e1" fill-opacity="1"></use></g><g><use xlink:href="#c3Z48tcrxJ" opacity="1" fill="#1be1d8" fill-opacity="1"></use></g><g><use xlink:href="#e145wObb3J" opacity="1" fill="#44de3f" fill-opacity="1"></use></g><g><use xlink:href="#h1ItAIwJAp" opacity="1" fill="#b71be1" fill-opacity="1"></use></g></g></g></svg>