<?xml version="1.0" encoding="UTF-8" standalone="no"?>
<!DOCTYPE svg PUBLIC "-//W3C//DTD SVG 1.1//EN" "http://www.w3.org/Graphics/SVG/1.1/DTD/svg11.dtd">
<svg version="1.1" xmlns="http://www.w3.org/2000/svg" xmlns:xlink="http://www.w3.org/1999/xlink" preserveAspectRatio="xMidYMid meet" viewBox="0 0 1920 900" width="1920" height="900"><defs><path d="M1513.43 292.02L1513.65 292.04L1513.87 292.07L1514.09 292.11L1514.3 292.15L1514.51 292.21L1514.72 292.27L1514.93 292.34L1515.13 292.41L1515.32 292.5L1515.52 292.59L1515.7 292.69L1515.89 292.79L1516.07 292.9L1516.24 293.02L1516.41 293.14L1516.57 293.27L1516.73 293.4L1516.89 293.54L1517.03 293.69L1517.17 293.84L1517.31 294L1517.44 294.16L1517.56 294.32L1517.68 294.49L1517.79 294.67L1517.89 294.85L1517.98 295.03L1518.07 295.22L1518.15 295.41L1518.22 295.6L1518.29 295.8L1518.35 296L1518.39 296.21L1518.43 296.41L1518.47 296.62L1518.49 296.83L1518.5 297.05L1518.51 297.27L1518.51 402.6L1629.17 402.6L1629.4 402.6L1629.63 402.62L1629.85 402.64L1630.07 402.67L1630.29 402.71L1630.5 402.75L1630.71 402.81L1630.92 402.87L1631.13 402.94L1631.33 403.01L1631.52 403.1L1631.72 403.19L1631.9 403.29L1632.09 403.39L1632.27 403.5L1632.44 403.62L1632.61 403.74L1632.77 403.87L1632.93 404L1633.09 404.14L1633.23 404.29L1633.37 404.44L1633.51 404.6L1633.64 404.76L1633.76 404.92L1633.88 405.09L1633.99 405.27L1634.09 405.45L1634.18 405.63L1634.27 405.82L1634.35 406.01L1634.42 406.2L1634.49 406.4L1634.55 406.6L1634.59 406.81L1634.63 407.01L1634.67 407.22L1634.69 407.43L1634.7 407.65L1634.71 407.87L1634.71 492.13L1634.7 492.35L1634.69 492.57L1634.67 492.78L1634.63 492.99L1634.59 493.19L1634.55 493.4L1634.49 493.6L1634.42 493.8L1634.35 493.99L1634.27 494.18L1634.18 494.37L1634.09 494.55L1633.99 494.73L1633.88 494.91L1633.76 495.08L1633.64 495.24L1633.51 495.4L1633.37 495.56L1633.23 495.71L1633.09 495.86L1632.93 496L1632.77 496.13L1632.61 496.26L1632.44 496.38L1632.27 496.5L1632.09 496.61L1631.9 496.71L1631.72 496.81L1631.52 496.9L1631.33 496.99L1631.13 497.06L1630.92 497.13L1630.71 497.19L1630.5 497.25L1630.29 497.29L1630.07 497.33L1629.85 497.36L1629.63 497.38L1629.4 497.4L1629.17 497.4L1518.51 497.4L1518.51 602.73L1518.5 602.95L1518.49 603.17L1518.47 603.38L1518.43 603.59L1518.39 603.79L1518.35 604L1518.29 604.2L1518.22 604.4L1518.15 604.59L1518.07 604.78L1517.98 604.97L1517.89 605.15L1517.79 605.33L1517.68 605.51L1517.56 605.68L1517.44 605.84L1517.31 606L1517.17 606.16L1517.03 606.31L1516.89 606.46L1516.73 606.6L1516.57 606.73L1516.41 606.86L1516.24 606.98L1516.07 607.1L1515.89 607.21L1515.7 607.31L1515.52 607.41L1515.32 607.5L1515.13 607.59L1514.93 607.66L1514.72 607.73L1514.51 607.79L1514.3 607.85L1514.09 607.89L1513.87 607.93L1513.65 607.96L1513.43 607.98L1513.2 608L1512.97 608L1424.44 608L1424.21 608L1423.99 607.98L1423.76 607.96L1423.54 607.93L1423.33 607.89L1423.11 607.85L1422.9 607.79L1422.69 607.73L1422.49 607.66L1422.29 607.59L1422.09 607.5L1421.9 607.41L1421.71 607.31L1421.53 607.21L1421.35 607.1L1421.17 606.98L1421 606.86L1420.84 606.73L1420.68 606.6L1420.53 606.46L1420.38 606.31L1420.24 606.16L1420.1 606L1419.97 605.84L1419.85 605.68L1419.74 605.51L1419.63 605.33L1419.52 605.15L1419.43 604.97L1419.34 604.78L1419.26 604.59L1419.19 604.4L1419.12 604.2L1419.07 604L1419.02 603.79L1418.98 603.59L1418.95 603.38L1418.92 603.17L1418.91 602.95L1418.91 602.73L1418.91 497.4L1308.24 497.4L1308.01 497.4L1307.79 497.38L1307.56 497.36L1307.34 497.33L1307.13 497.29L1306.91 497.25L1306.7 497.19L1306.49 497.13L1306.29 497.06L1306.09 496.99L1305.89 496.9L1305.7 496.81L1305.51 496.71L1305.33 496.61L1305.15 496.5L1304.97 496.38L1304.8 496.26L1304.64 496.13L1304.48 496L1304.33 495.86L1304.18 495.71L1304.04 495.56L1303.9 495.4L1303.77 495.24L1303.65 495.08L1303.54 494.91L1303.43 494.73L1303.32 494.55L1303.23 494.37L1303.14 494.18L1303.06 493.99L1302.99 493.8L1302.92 493.6L1302.87 493.4L1302.82 493.19L1302.78 492.99L1302.75 492.78L1302.72 492.57L1302.71 492.35L1302.71 492.13L1302.71 407.87L1302.71 407.65L1302.72 407.43L1302.75 407.22L1302.78 407.01L1302.82 406.81L1302.87 406.6L1302.92 406.4L1302.99 406.2L1303.06 406.01L1303.14 405.82L1303.23 405.63L1303.32 405.45L1303.43 405.27L1303.54 405.09L1303.65 404.92L1303.77 404.76L1303.9 404.6L1304.04 404.44L1304.18 404.29L1304.33 404.14L1304.48 404L1304.64 403.87L1304.8 403.74L1304.97 403.62L1305.15 403.5L1305.33 403.39L1305.51 403.29L1305.7 403.19L1305.89 403.1L1306.09 403.01L1306.29 402.94L1306.49 402.87L1306.7 402.81L1306.91 402.75L1307.13 402.71L1307.34 402.67L1307.56 402.64L1307.79 402.62L1308.01 402.6L1308.24 402.6L1418.91 402.6L1418.91 297.27L1418.91 297.05L1418.92 296.83L1418.95 296.62L1418.98 296.41L1419.02 296.21L1419.07 296L1419.12 295.8L1419.19 295.6L1419.26 295.41L1419.34 295.22L1419.43 295.03L1419.52 294.85L1419.63 294.67L1419.74 294.49L1419.85 294.32L1419.97 294.16L1420.1 294L1420.24 293.84L1420.38 293.69L1420.53 293.54L1420.68 293.4L1420.84 293.27L1421 293.14L1421.17 293.02L1421.35 292.9L1421.53 292.79L1421.71 292.69L1421.9 292.59L1422.09 292.5L1422.29 292.41L1422.49 292.34L1422.69 292.27L1422.9 292.21L1423.11 292.15L1423.33 292.11L1423.54 292.07L1423.76 292.04L1423.99 292.02L1424.21 292L1424.44 292L1512.97 292L1513.2 292L1513.43 292.02Z" id="f7Uc4GsDG"></path><path d="M1676.26 160.13L1676.37 160.14L1676.47 160.16L1676.58 160.17L1676.68 160.19L1676.78 160.22L1676.88 160.25L1676.98 160.28L1677.08 160.31L1677.17 160.35L1677.26 160.39L1677.36 160.44L1677.44 160.48L1677.53 160.54L1677.61 160.59L1677.7 160.64L1677.77 160.7L1677.85 160.76L1677.93 160.83L1678 160.89L1678.06 160.96L1678.13 161.03L1678.19 161.11L1678.25 161.18L1678.31 161.26L1678.36 161.34L1678.41 161.42L1678.45 161.51L1678.5 161.59L1678.54 161.68L1678.57 161.77L1678.6 161.86L1678.63 161.95L1678.65 162.04L1678.67 162.14L1678.69 162.23L1678.7 162.33L1678.7 162.43L1678.71 162.52L1678.71 210.52L1732.04 210.52L1732.15 210.53L1732.26 210.53L1732.37 210.54L1732.47 210.56L1732.58 210.57L1732.68 210.59L1732.78 210.62L1732.88 210.65L1732.98 210.68L1733.08 210.71L1733.17 210.75L1733.26 210.79L1733.36 210.84L1733.44 210.88L1733.53 210.94L1733.61 210.99L1733.7 211.04L1733.77 211.1L1733.85 211.16L1733.93 211.23L1734 211.29L1734.06 211.36L1734.13 211.43L1734.19 211.51L1734.25 211.58L1734.31 211.66L1734.36 211.74L1734.41 211.82L1734.45 211.91L1734.5 211.99L1734.54 212.08L1734.57 212.17L1734.6 212.26L1734.63 212.35L1734.65 212.44L1734.67 212.54L1734.69 212.63L1734.7 212.73L1734.7 212.83L1734.71 212.92L1734.71 251.32L1734.7 251.42L1734.7 251.52L1734.69 251.62L1734.67 251.71L1734.65 251.81L1734.63 251.9L1734.6 251.99L1734.57 252.08L1734.54 252.17L1734.5 252.26L1734.45 252.34L1734.41 252.43L1734.36 252.51L1734.31 252.59L1734.25 252.67L1734.19 252.74L1734.13 252.82L1734.06 252.89L1734 252.96L1733.93 253.02L1733.85 253.09L1733.77 253.15L1733.7 253.21L1733.61 253.26L1733.53 253.31L1733.44 253.37L1733.36 253.41L1733.26 253.46L1733.17 253.5L1733.08 253.54L1732.98 253.57L1732.88 253.6L1732.78 253.63L1732.68 253.66L1732.58 253.68L1732.47 253.69L1732.37 253.71L1732.26 253.72L1732.15 253.72L1732.04 253.72L1678.71 253.72L1678.71 301.72L1678.7 301.82L1678.7 301.92L1678.69 302.02L1678.67 302.11L1678.65 302.21L1678.63 302.3L1678.6 302.39L1678.57 302.48L1678.54 302.57L1678.5 302.66L1678.45 302.74L1678.41 302.83L1678.36 302.91L1678.31 302.99L1678.25 303.07L1678.19 303.14L1678.13 303.22L1678.06 303.29L1678 303.36L1677.93 303.42L1677.85 303.49L1677.77 303.55L1677.7 303.61L1677.61 303.66L1677.53 303.71L1677.44 303.77L1677.36 303.81L1677.26 303.86L1677.17 303.9L1677.08 303.94L1676.98 303.97L1676.88 304L1676.78 304.03L1676.68 304.06L1676.58 304.08L1676.47 304.09L1676.37 304.11L1676.26 304.12L1676.15 304.12L1676.04 304.13L1633.37 304.13L1633.26 304.12L1633.15 304.12L1633.05 304.11L1632.94 304.09L1632.84 304.08L1632.73 304.06L1632.63 304.03L1632.53 304L1632.43 303.97L1632.34 303.94L1632.24 303.9L1632.15 303.86L1632.06 303.81L1631.97 303.77L1631.88 303.71L1631.8 303.66L1631.72 303.61L1631.64 303.55L1631.56 303.49L1631.49 303.42L1631.42 303.36L1631.35 303.29L1631.28 303.22L1631.22 303.14L1631.16 303.07L1631.11 302.99L1631.05 302.91L1631 302.83L1630.96 302.74L1630.92 302.66L1630.88 302.57L1630.84 302.48L1630.81 302.39L1630.78 302.3L1630.76 302.21L1630.74 302.11L1630.73 302.02L1630.72 301.92L1630.71 301.82L1630.71 301.72L1630.71 253.72L1577.37 253.72L1577.26 253.72L1577.15 253.72L1577.05 253.71L1576.94 253.69L1576.84 253.68L1576.73 253.66L1576.63 253.63L1576.53 253.6L1576.43 253.57L1576.34 253.54L1576.24 253.5L1576.15 253.46L1576.06 253.41L1575.97 253.37L1575.88 253.31L1575.8 253.26L1575.72 253.21L1575.64 253.15L1575.56 253.09L1575.49 253.02L1575.42 252.96L1575.35 252.89L1575.28 252.82L1575.22 252.74L1575.16 252.67L1575.11 252.59L1575.05 252.51L1575 252.43L1574.96 252.34L1574.92 252.26L1574.88 252.17L1574.84 252.08L1574.81 251.99L1574.78 251.9L1574.76 251.81L1574.74 251.71L1574.73 251.62L1574.72 251.52L1574.71 251.42L1574.71 251.33L1574.71 212.92L1574.71 212.83L1574.72 212.73L1574.73 212.63L1574.74 212.54L1574.76 212.44L1574.78 212.35L1574.81 212.26L1574.84 212.17L1574.88 212.08L1574.92 211.99L1574.96 211.91L1575 211.82L1575.05 211.74L1575.11 211.66L1575.16 211.58L1575.22 211.51L1575.28 211.43L1575.35 211.36L1575.42 211.29L1575.49 211.23L1575.56 211.16L1575.64 211.1L1575.72 211.04L1575.8 210.99L1575.88 210.94L1575.97 210.88L1576.06 210.84L1576.15 210.79L1576.24 210.75L1576.34 210.71L1576.43 210.68L1576.53 210.65L1576.63 210.62L1576.73 210.59L1576.84 210.57L1576.94 210.56L1577.05 210.54L1577.15 210.53L1577.26 210.53L1577.37 210.52L1630.71 210.52L1630.71 162.52L1630.71 162.43L1630.72 162.33L1630.73 162.23L1630.74 162.14L1630.76 162.04L1630.78 161.95L1630.81 161.86L1630.84 161.77L1630.88 161.68L1630.92 161.59L1630.96 161.51L1631 161.42L1631.05 161.34L1631.11 161.26L1631.16 161.18L1631.22 161.11L1631.28 161.03L1631.35 160.96L1631.42 160.89L1631.49 160.83L1631.56 160.76L1631.64 160.7L1631.72 160.64L1631.8 160.59L1631.88 160.54L1631.97 160.48L1632.06 160.44L1632.15 160.39L1632.24 160.35L1632.34 160.31L1632.43 160.28L1632.53 160.25L1632.63 160.22L1632.73 160.19L1632.84 160.17L1632.94 160.16L1633.05 160.14L1633.15 160.13L1633.26 160.13L1633.37 160.12L1676.04 160.12L1676.15 160.13L1676.26 160.13Z" id="bNvyP7i5B"></path><path d="M1734.21 450L1734.27 450.01L1734.32 450.02L1734.37 450.03L1734.42 450.04L1734.47 450.05L1734.52 450.06L1734.57 450.08L1734.61 450.1L1734.66 450.12L1734.7 450.14L1734.75 450.16L1734.79 450.19L1734.83 450.22L1734.87 450.24L1734.91 450.27L1734.95 450.31L1734.99 450.34L1735.03 450.37L1735.06 450.41L1735.09 450.44L1735.13 450.48L1735.16 450.52L1735.18 450.56L1735.21 450.6L1735.24 450.64L1735.26 450.68L1735.28 450.73L1735.3 450.77L1735.32 450.82L1735.34 450.87L1735.36 450.91L1735.37 450.96L1735.38 451.01L1735.39 451.06L1735.4 451.11L1735.4 451.16L1735.41 451.21L1735.41 451.27L1735.41 476.6L1761.41 476.6L1761.46 476.6L1761.51 476.6L1761.57 476.61L1761.62 476.62L1761.67 476.63L1761.72 476.64L1761.77 476.65L1761.82 476.66L1761.87 476.68L1761.91 476.7L1761.96 476.72L1762 476.74L1762.05 476.76L1762.09 476.79L1762.13 476.82L1762.17 476.84L1762.21 476.87L1762.25 476.91L1762.29 476.94L1762.33 476.97L1762.36 477.01L1762.39 477.04L1762.43 477.08L1762.46 477.12L1762.48 477.16L1762.51 477.2L1762.54 477.24L1762.56 477.28L1762.58 477.33L1762.6 477.37L1762.62 477.42L1762.64 477.47L1762.66 477.51L1762.67 477.56L1762.68 477.61L1762.69 477.66L1762.7 477.71L1762.7 477.76L1762.71 477.81L1762.71 477.87L1762.71 498.13L1762.71 498.19L1762.7 498.24L1762.7 498.29L1762.69 498.34L1762.68 498.39L1762.67 498.44L1762.66 498.49L1762.64 498.53L1762.62 498.58L1762.6 498.63L1762.58 498.67L1762.56 498.72L1762.54 498.76L1762.51 498.8L1762.48 498.84L1762.46 498.88L1762.43 498.92L1762.39 498.96L1762.36 498.99L1762.33 499.03L1762.29 499.06L1762.25 499.09L1762.21 499.13L1762.17 499.16L1762.13 499.18L1762.09 499.21L1762.05 499.24L1762 499.26L1761.96 499.28L1761.91 499.3L1761.87 499.32L1761.82 499.34L1761.77 499.35L1761.72 499.36L1761.67 499.37L1761.62 499.38L1761.57 499.39L1761.51 499.4L1761.46 499.4L1761.41 499.4L1735.41 499.4L1735.41 524.73L1735.41 524.79L1735.4 524.84L1735.4 524.89L1735.39 524.94L1735.38 524.99L1735.37 525.04L1735.36 525.09L1735.34 525.13L1735.32 525.18L1735.3 525.23L1735.28 525.27L1735.26 525.32L1735.24 525.36L1735.21 525.4L1735.18 525.44L1735.16 525.48L1735.13 525.52L1735.09 525.56L1735.06 525.59L1735.03 525.63L1734.99 525.66L1734.95 525.69L1734.91 525.73L1734.87 525.76L1734.83 525.78L1734.79 525.81L1734.75 525.84L1734.7 525.86L1734.66 525.88L1734.61 525.9L1734.57 525.92L1734.52 525.94L1734.47 525.95L1734.42 525.96L1734.37 525.97L1734.32 525.98L1734.27 525.99L1734.21 526L1734.16 526L1734.11 526L1713.31 526L1713.25 526L1713.2 526L1713.15 525.99L1713.1 525.98L1713.04 525.97L1712.99 525.96L1712.94 525.95L1712.9 525.94L1712.85 525.92L1712.8 525.9L1712.75 525.88L1712.71 525.86L1712.67 525.84L1712.62 525.81L1712.58 525.78L1712.54 525.76L1712.5 525.73L1712.46 525.69L1712.42 525.66L1712.39 525.63L1712.35 525.59L1712.32 525.56L1712.29 525.52L1712.26 525.48L1712.23 525.44L1712.2 525.4L1712.18 525.36L1712.15 525.32L1712.13 525.27L1712.11 525.23L1712.09 525.18L1712.07 525.13L1712.06 525.09L1712.04 525.04L1712.03 524.99L1712.02 524.94L1712.02 524.89L1712.01 524.84L1712.01 524.79L1712.01 524.73L1712.01 499.4L1686.01 499.4L1685.95 499.4L1685.9 499.4L1685.85 499.39L1685.8 499.38L1685.74 499.37L1685.69 499.36L1685.64 499.35L1685.6 499.34L1685.55 499.32L1685.5 499.3L1685.45 499.28L1685.41 499.26L1685.37 499.24L1685.32 499.21L1685.28 499.18L1685.24 499.16L1685.2 499.13L1685.16 499.09L1685.12 499.06L1685.09 499.03L1685.05 498.99L1685.02 498.96L1684.99 498.92L1684.96 498.88L1684.93 498.84L1684.9 498.8L1684.88 498.76L1684.85 498.72L1684.83 498.67L1684.81 498.63L1684.79 498.58L1684.77 498.53L1684.76 498.49L1684.74 498.44L1684.73 498.39L1684.72 498.34L1684.72 498.29L1684.71 498.24L1684.71 498.19L1684.71 498.13L1684.71 477.87L1684.71 477.81L1684.71 477.76L1684.72 477.71L1684.72 477.66L1684.73 477.61L1684.74 477.56L1684.76 477.51L1684.77 477.47L1684.79 477.42L1684.81 477.37L1684.83 477.33L1684.85 477.28L1684.88 477.24L1684.9 477.2L1684.93 477.16L1684.96 477.12L1684.99 477.08L1685.02 477.04L1685.05 477.01L1685.09 476.97L1685.12 476.94L1685.16 476.91L1685.2 476.87L1685.24 476.84L1685.28 476.82L1685.32 476.79L1685.37 476.76L1685.41 476.74L1685.45 476.72L1685.5 476.7L1685.55 476.68L1685.6 476.66L1685.64 476.65L1685.69 476.64L1685.74 476.63L1685.8 476.62L1685.85 476.61L1685.9 476.6L1685.95 476.6L1686.01 476.6L1712.01 476.6L1712.01 451.27L1712.01 451.21L1712.01 451.16L1712.02 451.11L1712.02 451.06L1712.03 451.01L1712.04 450.96L1712.06 450.91L1712.07 450.87L1712.09 450.82L1712.11 450.77L1712.13 450.73L1712.15 450.68L1712.18 450.64L1712.2 450.6L1712.23 450.56L1712.26 450.52L1712.29 450.48L1712.32 450.44L1712.35 450.41L1712.39 450.37L1712.42 450.34L1712.46 450.31L1712.5 450.27L1712.54 450.24L1712.58 450.22L1712.62 450.19L1712.67 450.16L1712.71 450.14L1712.75 450.12L1712.8 450.1L1712.85 450.08L1712.9 450.06L1712.94 450.05L1712.99 450.04L1713.04 450.03L1713.1 450.02L1713.15 450.01L1713.2 450L1713.25 450L1713.31 450L1734.11 450L1734.16 450L1734.21 450Z" id="ecqRBOYmB"></path><path d="M1352.21 622.13L1352.27 622.13L1352.32 622.14L1352.37 622.15L1352.42 622.16L1352.47 622.17L1352.52 622.19L1352.57 622.21L1352.61 622.22L1352.66 622.24L1352.7 622.27L1352.75 622.29L1352.79 622.31L1352.83 622.34L1352.87 622.37L1352.91 622.4L1352.95 622.43L1352.99 622.46L1353.03 622.5L1353.06 622.53L1353.09 622.57L1353.13 622.61L1353.16 622.64L1353.18 622.68L1353.21 622.72L1353.24 622.77L1353.26 622.81L1353.28 622.85L1353.3 622.9L1353.32 622.94L1353.34 622.99L1353.36 623.04L1353.37 623.09L1353.38 623.14L1353.39 623.19L1353.4 623.24L1353.4 623.29L1353.41 623.34L1353.41 623.39L1353.41 648.73L1379.41 648.73L1379.46 648.73L1379.51 648.73L1379.57 648.73L1379.62 648.74L1379.67 648.75L1379.72 648.76L1379.77 648.77L1379.82 648.79L1379.87 648.81L1379.91 648.82L1379.96 648.84L1380 648.87L1380.05 648.89L1380.09 648.91L1380.13 648.94L1380.17 648.97L1380.21 649L1380.25 649.03L1380.29 649.06L1380.33 649.1L1380.36 649.13L1380.39 649.17L1380.43 649.21L1380.46 649.24L1380.48 649.28L1380.51 649.32L1380.54 649.37L1380.56 649.41L1380.58 649.45L1380.6 649.5L1380.62 649.54L1380.64 649.59L1380.66 649.64L1380.67 649.69L1380.68 649.74L1380.69 649.79L1380.7 649.84L1380.7 649.89L1380.71 649.94L1380.71 649.99L1380.71 670.26L1380.71 670.31L1380.7 670.36L1380.7 670.41L1380.69 670.46L1380.68 670.51L1380.67 670.56L1380.66 670.61L1380.64 670.66L1380.62 670.71L1380.6 670.75L1380.58 670.8L1380.56 670.84L1380.54 670.88L1380.51 670.93L1380.48 670.97L1380.46 671.01L1380.43 671.04L1380.39 671.08L1380.36 671.12L1380.33 671.15L1380.29 671.19L1380.25 671.22L1380.21 671.25L1380.17 671.28L1380.13 671.31L1380.09 671.34L1380.05 671.36L1380 671.38L1379.96 671.41L1379.91 671.43L1379.87 671.44L1379.82 671.46L1379.77 671.48L1379.72 671.49L1379.67 671.5L1379.62 671.51L1379.57 671.52L1379.51 671.52L1379.46 671.52L1379.41 671.53L1353.41 671.53L1353.41 696.86L1353.41 696.91L1353.4 696.96L1353.4 697.01L1353.39 697.06L1353.38 697.11L1353.37 697.16L1353.36 697.21L1353.34 697.26L1353.32 697.31L1353.3 697.35L1353.28 697.4L1353.26 697.44L1353.24 697.48L1353.21 697.53L1353.18 697.57L1353.16 697.61L1353.13 697.64L1353.09 697.68L1353.06 697.72L1353.03 697.75L1352.99 697.79L1352.95 697.82L1352.91 697.85L1352.87 697.88L1352.83 697.91L1352.79 697.94L1352.75 697.96L1352.7 697.98L1352.66 698.01L1352.61 698.03L1352.57 698.04L1352.52 698.06L1352.47 698.08L1352.42 698.09L1352.37 698.1L1352.32 698.11L1352.27 698.12L1352.21 698.12L1352.16 698.12L1352.11 698.13L1331.31 698.13L1331.25 698.12L1331.2 698.12L1331.15 698.12L1331.1 698.11L1331.04 698.1L1330.99 698.09L1330.94 698.08L1330.9 698.06L1330.85 698.04L1330.8 698.03L1330.75 698.01L1330.71 697.98L1330.67 697.96L1330.62 697.94L1330.58 697.91L1330.54 697.88L1330.5 697.85L1330.46 697.82L1330.42 697.79L1330.39 697.75L1330.35 697.72L1330.32 697.68L1330.29 697.64L1330.26 697.61L1330.23 697.57L1330.2 697.53L1330.18 697.48L1330.15 697.44L1330.13 697.4L1330.11 697.35L1330.09 697.31L1330.07 697.26L1330.06 697.21L1330.04 697.16L1330.03 697.11L1330.02 697.06L1330.02 697.01L1330.01 696.96L1330.01 696.91L1330.01 696.86L1330.01 671.53L1304.01 671.53L1303.95 671.52L1303.9 671.52L1303.85 671.52L1303.8 671.51L1303.74 671.5L1303.69 671.49L1303.64 671.48L1303.6 671.46L1303.55 671.44L1303.5 671.43L1303.45 671.41L1303.41 671.38L1303.37 671.36L1303.32 671.34L1303.28 671.31L1303.24 671.28L1303.2 671.25L1303.16 671.22L1303.12 671.19L1303.09 671.15L1303.05 671.12L1303.02 671.08L1302.99 671.04L1302.96 671.01L1302.93 670.97L1302.9 670.93L1302.88 670.88L1302.85 670.84L1302.83 670.8L1302.81 670.75L1302.79 670.71L1302.77 670.66L1302.76 670.61L1302.74 670.56L1302.73 670.51L1302.72 670.46L1302.72 670.41L1302.71 670.36L1302.71 670.31L1302.71 670.26L1302.71 649.99L1302.71 649.94L1302.71 649.89L1302.72 649.84L1302.72 649.79L1302.73 649.74L1302.74 649.69L1302.76 649.64L1302.77 649.59L1302.79 649.54L1302.81 649.5L1302.83 649.45L1302.85 649.41L1302.88 649.37L1302.9 649.32L1302.93 649.28L1302.96 649.24L1302.99 649.21L1303.02 649.17L1303.05 649.13L1303.09 649.1L1303.12 649.06L1303.16 649.03L1303.2 649L1303.24 648.97L1303.28 648.94L1303.32 648.91L1303.37 648.89L1303.41 648.87L1303.45 648.84L1303.5 648.82L1303.55 648.81L1303.6 648.79L1303.64 648.77L1303.69 648.76L1303.74 648.75L1303.8 648.74L1303.85 648.73L1303.9 648.73L1303.95 648.73L1304.01 648.73L1330.01 648.73L1330.01 623.39L1330.01 623.34L1330.01 623.29L1330.02 623.24L1330.02 623.19L1330.03 623.14L1330.04 623.09L1330.06 623.04L1330.07 622.99L1330.09 622.94L1330.11 622.9L1330.13 622.85L1330.15 622.81L1330.18 622.77L1330.2 622.72L1330.23 622.68L1330.26 622.64L1330.29 622.61L1330.32 622.57L1330.35 622.53L1330.39 622.5L1330.42 622.46L1330.46 622.43L1330.5 622.4L1330.54 622.37L1330.58 622.34L1330.62 622.31L1330.67 622.29L1330.71 622.27L1330.75 622.24L1330.8 622.22L1330.85 622.21L1330.9 622.19L1330.94 622.17L1330.99 622.16L1331.04 622.15L1331.1 622.14L1331.15 622.13L1331.2 622.13L1331.25 622.13L1331.31 622.13L1352.11 622.13L1352.16 622.13L1352.21 622.13Z" id="e6ka2AmNLT"></path></defs><g><g><g><use xlink:href="#f7Uc4GsDG" opacity="1" fill="#ff742b" fill-opacity="1"></use></g><g><use xlink:href="#bNvyP7i5B" opacity="1" fill="#f8864a" fill-opacity="1"></use></g><g><use xlink:href="#ecqRBOYmB" opacity="1" fill="#ffa575" fill-opacity="1"></use></g><g><use xlink:href="#e6ka2AmNLT" opacity="1" fill="#ff9a65" fill-opacity="1"></use></g></g></g></svg>