<?xml version="1.0" encoding="UTF-8" standalone="no"?>
<!DOCTYPE svg PUBLIC "-//W3C//DTD SVG 1.1//EN" "http://www.w3.org/Graphics/SVG/1.1/DTD/svg11.dtd">
<svg version="1.1" xmlns="http://www.w3.org/2000/svg" xmlns:xlink="http://www.w3.org/1999/xlink" preserveAspectRatio="xMidYMid meet" viewBox="0 0 600 600" width="600" height="600"><defs><path d="M272.8 29.83L281.72 30.74L290.52 31.99L299.22 33.58L307.79 35.5L316.23 37.75L324.53 40.33L332.69 43.21L340.7 46.4L348.55 49.89L356.24 53.67L363.76 57.74L371.09 62.08L378.24 66.69L385.2 71.57L391.96 76.7L398.51 82.09L404.84 87.71L410.95 93.57L416.84 99.66L422.48 105.97L427.89 112.49L433.04 119.22L437.94 126.15L442.57 133.27L446.93 140.57L451.02 148.06L454.81 155.71L458.32 163.53L461.52 171.51L464.42 179.64L467 187.91L469.26 196.31L471.2 204.85L472.79 213.51L474.05 222.28L474.95 231.16L475.5 240.13L475.69 249.21L475.5 258.28L474.95 267.26L474.05 276.14L472.79 284.91L471.2 293.57L469.26 302.1L467 310.51L464.42 318.78L461.52 326.9L458.32 334.88L454.81 342.7L451.02 350.36L446.93 357.84L442.57 365.15L438.1 372.03L577.69 511.04L517.58 570.9L378 431.88L371.09 436.33L363.76 440.68L356.24 444.74L348.55 448.52L340.7 452.01L332.69 455.2L324.53 458.09L316.23 460.66L307.79 462.91L299.22 464.84L290.52 466.43L281.72 467.68L272.8 468.58L263.78 469.13L254.67 469.31L245.56 469.13L236.55 468.58L227.63 467.68L218.82 466.43L210.13 464.84L201.56 462.91L193.12 460.66L184.82 458.09L176.66 455.2L168.65 452.01L160.79 448.52L153.11 444.74L145.59 440.68L138.25 436.33L131.1 431.72L124.15 426.84L117.39 421.71L110.84 416.33L104.51 410.7L98.39 404.84L92.51 398.76L86.86 392.45L81.46 385.93L76.3 379.2L71.41 372.27L66.77 365.15L62.41 357.84L58.33 350.36L54.53 342.7L51.03 334.88L47.83 326.9L44.93 318.78L42.35 310.51L40.08 302.1L38.15 293.57L36.55 284.91L35.3 276.14L34.39 267.26L33.85 258.28L33.66 249.21L33.85 240.13L34.39 231.16L35.3 222.28L36.55 213.51L38.15 204.85L40.08 196.31L42.35 187.91L44.93 179.64L47.83 171.51L51.03 163.53L54.53 155.71L58.33 148.06L62.41 140.57L66.77 133.27L71.41 126.15L76.3 119.22L81.46 112.49L86.86 105.97L92.51 99.66L98.39 93.57L104.51 87.71L110.84 82.09L117.39 76.7L124.15 71.57L131.1 66.69L138.25 62.08L145.59 57.74L153.11 53.67L160.79 49.89L168.65 46.4L176.66 43.21L184.82 40.33L193.12 37.75L201.56 35.5L210.13 33.58L218.82 31.99L227.63 30.74L236.55 29.83L245.56 29.29L254.67 29.1L263.78 29.29L272.8 29.83ZM243.49 113.85L237.99 114.41L232.55 115.18L227.19 116.16L221.9 117.35L216.69 118.74L211.57 120.32L206.54 122.1L201.59 124.07L196.75 126.22L192 128.56L187.37 131.07L182.84 133.75L178.43 136.59L174.14 139.6L169.97 142.77L165.93 146.09L162.02 149.56L158.25 153.18L154.62 156.93L151.13 160.82L147.8 164.85L144.62 169L141.59 173.28L138.74 177.67L136.04 182.18L133.53 186.8L131.18 191.52L129.02 196.34L127.04 201.27L125.26 206.28L123.66 211.38L122.27 216.57L121.08 221.84L120.09 227.18L119.32 232.59L118.76 238.07L118.42 243.61L118.3 249.21L118.42 254.81L118.76 260.35L119.32 265.82L120.09 271.24L121.08 276.58L122.27 281.84L123.66 287.03L125.26 292.13L127.04 297.15L129.02 302.07L131.18 306.89L133.53 311.62L136.04 316.24L138.74 320.74L141.59 325.14L144.62 329.41L147.8 333.57L151.13 337.59L154.62 341.48L158.25 345.24L162.02 348.85L165.93 352.32L169.97 355.64L174.14 358.81L178.43 361.82L182.84 364.67L187.37 367.35L192 369.86L196.75 372.19L201.59 374.34L206.54 376.31L211.57 378.09L216.69 379.68L221.9 381.07L227.19 382.26L232.55 383.24L237.99 384.01L243.49 384.56L249.05 384.9L254.67 385.02L260.29 384.9L265.86 384.56L271.36 384.01L276.79 383.24L282.16 382.26L287.44 381.07L292.65 379.68L297.78 378.09L302.81 376.31L307.75 374.34L312.6 372.19L317.34 369.86L321.98 367.35L326.51 364.67L330.92 361.82L335.21 358.81L339.38 355.64L343.42 352.32L347.33 348.85L351.1 345.24L354.73 341.48L358.22 337.59L361.55 333.57L364.73 329.41L367.75 325.14L370.61 320.74L373.3 316.24L375.82 311.62L378.16 306.89L380.33 302.07L382.3 297.15L384.09 292.13L385.68 287.03L387.08 281.84L388.27 276.58L389.26 271.24L390.03 265.82L390.59 260.35L390.93 254.81L391.04 249.21L390.93 243.61L390.59 238.07L390.03 232.59L389.26 227.18L388.27 221.84L387.08 216.57L385.68 211.38L384.09 206.28L382.3 201.27L380.33 196.34L378.16 191.52L375.82 186.8L373.3 182.18L370.61 177.67L367.75 173.28L364.73 169L361.55 164.85L358.22 160.82L354.73 156.93L351.1 153.18L347.33 149.56L343.42 146.09L339.38 142.77L335.21 139.6L330.92 136.59L326.51 133.75L321.98 131.07L317.34 128.56L312.6 126.22L307.75 124.07L302.81 122.1L297.78 120.32L292.65 118.74L287.44 117.35L282.16 116.16L276.79 115.18L271.36 114.41L265.86 113.85L260.29 113.51L254.67 113.4L249.05 113.51L243.49 113.85Z" id="aHyUmC43B"></path></defs><g><g><g><g><filter id="shadow10034427" x="3.66" y="-0.9" width="610.03" height="609.79" filterUnits="userSpaceOnUse" primitiveUnits="userSpaceOnUse"><feFlood></feFlood><feComposite in2="SourceAlpha" operator="in"></feComposite><feGaussianBlur stdDeviation="2.83"></feGaussianBlur><feOffset dx="6" dy="8" result="afterOffset"></feOffset><feFlood flood-color="#000000" flood-opacity="0.5"></feFlood><feComposite in2="afterOffset" operator="in"></feComposite><feMorphology operator="dilate" radius="1"></feMorphology><feComposite in2="SourceAlpha" operator="out"></feComposite></filter><path d="M272.8 29.83L281.72 30.74L290.52 31.99L299.22 33.58L307.79 35.5L316.23 37.75L324.53 40.33L332.69 43.21L340.7 46.4L348.55 49.89L356.24 53.67L363.76 57.74L371.09 62.08L378.24 66.69L385.2 71.57L391.96 76.7L398.51 82.09L404.84 87.71L410.95 93.57L416.84 99.66L422.48 105.97L427.89 112.49L433.04 119.22L437.94 126.15L442.57 133.27L446.93 140.57L451.02 148.06L454.81 155.71L458.32 163.53L461.52 171.51L464.42 179.64L467 187.91L469.26 196.31L471.2 204.85L472.79 213.51L474.05 222.28L474.95 231.16L475.5 240.13L475.69 249.21L475.5 258.28L474.95 267.26L474.05 276.14L472.79 284.91L471.2 293.57L469.26 302.1L467 310.51L464.42 318.78L461.52 326.9L458.32 334.88L454.81 342.7L451.02 350.36L446.93 357.84L442.57 365.15L438.1 372.03L577.69 511.04L517.58 570.9L378 431.88L371.09 436.33L363.76 440.68L356.24 444.74L348.55 448.52L340.7 452.01L332.69 455.2L324.53 458.09L316.23 460.66L307.79 462.91L299.22 464.84L290.52 466.43L281.72 467.68L272.8 468.58L263.78 469.13L254.67 469.31L245.56 469.13L236.55 468.58L227.63 467.68L218.82 466.43L210.13 464.84L201.56 462.91L193.12 460.66L184.82 458.09L176.66 455.2L168.65 452.01L160.79 448.52L153.11 444.74L145.59 440.68L138.25 436.33L131.1 431.72L124.15 426.84L117.39 421.71L110.84 416.33L104.51 410.7L98.39 404.84L92.51 398.76L86.86 392.45L81.46 385.93L76.3 379.2L71.41 372.27L66.77 365.15L62.41 357.84L58.33 350.36L54.53 342.7L51.03 334.88L47.83 326.9L44.93 318.78L42.35 310.51L40.08 302.1L38.15 293.57L36.55 284.91L35.3 276.14L34.39 267.26L33.85 258.28L33.66 249.21L33.85 240.13L34.39 231.16L35.3 222.28L36.55 213.51L38.15 204.85L40.08 196.31L42.35 187.91L44.93 179.64L47.83 171.51L51.03 163.53L54.53 155.71L58.33 148.06L62.41 140.57L66.77 133.27L71.41 126.15L76.3 119.22L81.46 112.49L86.86 105.97L92.51 99.66L98.39 93.57L104.51 87.71L110.84 82.09L117.39 76.7L124.15 71.57L131.1 66.69L138.25 62.08L145.59 57.74L153.11 53.67L160.79 49.89L168.65 46.4L176.66 43.21L184.82 40.33L193.12 37.75L201.56 35.5L210.13 33.58L218.82 31.99L227.63 30.74L236.55 29.83L245.56 29.29L254.67 29.1L263.78 29.29L272.8 29.83ZM243.49 113.85L237.99 114.41L232.55 115.18L227.19 116.16L221.9 117.35L216.69 118.74L211.57 120.32L206.54 122.1L201.59 124.07L196.75 126.22L192 128.56L187.37 131.07L182.84 133.75L178.43 136.59L174.14 139.6L169.97 142.77L165.93 146.09L162.02 149.56L158.25 153.18L154.62 156.93L151.13 160.82L147.8 164.85L144.62 169L141.59 173.28L138.74 177.67L136.04 182.18L133.53 186.8L131.18 191.52L129.02 196.34L127.04 201.27L125.26 206.28L123.66 211.38L122.27 216.57L121.08 221.84L120.09 227.18L119.32 232.59L118.76 238.07L118.42 243.61L118.3 249.21L118.42 254.81L118.76 260.35L119.32 265.82L120.09 271.24L121.08 276.58L122.27 281.84L123.66 287.03L125.26 292.13L127.04 297.15L129.02 302.07L131.18 306.89L133.53 311.62L136.04 316.24L138.74 320.74L141.59 325.14L144.62 329.41L147.8 333.57L151.13 337.59L154.62 341.48L158.25 345.24L162.02 348.85L165.93 352.32L169.97 355.64L174.14 358.81L178.43 361.82L182.84 364.67L187.37 367.35L192 369.86L196.75 372.19L201.59 374.34L206.54 376.31L211.57 378.09L216.69 379.68L221.9 381.07L227.19 382.26L232.55 383.24L237.99 384.01L243.49 384.56L249.05 384.9L254.67 385.02L260.29 384.9L265.86 384.56L271.36 384.01L276.79 383.24L282.16 382.26L287.44 381.07L292.65 379.68L297.78 378.09L302.81 376.31L307.75 374.34L312.6 372.19L317.34 369.86L321.98 367.35L326.51 364.67L330.92 361.82L335.21 358.81L339.38 355.64L343.42 352.32L347.33 348.85L351.1 345.24L354.73 341.48L358.22 337.59L361.55 333.57L364.73 329.41L367.75 325.14L370.61 320.74L373.3 316.24L375.82 311.62L378.16 306.89L380.33 302.07L382.3 297.15L384.09 292.13L385.68 287.03L387.08 281.84L388.27 276.58L389.26 271.24L390.03 265.82L390.59 260.35L390.93 254.81L391.04 249.21L390.93 243.61L390.59 238.07L390.03 232.59L389.26 227.18L388.27 221.84L387.08 216.57L385.68 211.38L384.09 206.28L382.3 201.27L380.33 196.34L378.16 191.52L375.82 186.8L373.3 182.18L370.61 177.67L367.75 173.28L364.73 169L361.55 164.85L358.22 160.82L354.73 156.93L351.1 153.18L347.33 149.56L343.42 146.09L339.38 142.77L335.21 139.6L330.92 136.59L326.51 133.75L321.98 131.07L317.34 128.56L312.6 126.22L307.75 124.07L302.81 122.1L297.78 120.32L292.65 118.74L287.44 117.35L282.16 116.16L276.79 115.18L271.36 114.41L265.86 113.85L260.29 113.51L254.67 113.4L249.05 113.51L243.49 113.85Z" id="n40UtCqpv" fill="white" fill-opacity="1" filter="url(#shadow10034427)"></path></g><use xlink:href="#aHyUmC43B" opacity="1" fill="#ff6c20" fill-opacity="1"></use></g></g></g></svg>