<?xml version="1.0" encoding="UTF-8" standalone="no"?>
<!DOCTYPE svg PUBLIC "-//W3C//DTD SVG 1.1//EN" "http://www.w3.org/Graphics/SVG/1.1/DTD/svg11.dtd">
<svg version="1.1" xmlns="http://www.w3.org/2000/svg" xmlns:xlink="http://www.w3.org/1999/xlink" preserveAspectRatio="xMidYMid meet" viewBox="0 0 300 300" width="300" height="300"><defs><path d="M140.25 26.08L144.31 26.49L148.32 27.07L152.28 27.8L156.18 28.68L160.03 29.71L163.81 30.89L167.53 32.22L171.17 33.68L174.75 35.28L178.25 37.01L181.67 38.88L185.02 40.87L188.27 42.99L191.44 45.22L194.52 47.58L197.5 50.05L200.38 52.63L203.17 55.32L205.85 58.11L208.42 61L210.88 63.99L213.23 67.08L215.46 70.26L217.57 73.52L219.56 76.87L221.41 80.31L223.14 83.82L224.74 87.41L226.2 91.06L227.52 94.79L228.69 98.59L229.72 102.44L230.6 106.36L231.33 110.33L231.9 114.35L232.32 118.42L232.57 122.54L232.65 126.7L232.57 130.86L232.32 134.98L231.9 139.05L231.33 143.08L230.6 147.05L229.72 150.96L228.69 154.82L227.52 158.61L226.2 162.34L224.74 166L223.14 169.59L221.41 173.1L219.56 176.53L217.57 179.88L215.53 183.04L279.1 246.8L251.73 274.25L188.16 210.49L185.02 212.53L181.67 214.53L178.25 216.39L174.75 218.12L171.17 219.72L167.53 221.19L163.81 222.51L160.03 223.69L156.18 224.72L152.28 225.61L148.32 226.34L144.31 226.91L140.25 227.32L136.15 227.57L132 227.66L127.85 227.57L123.74 227.32L119.68 226.91L115.67 226.34L111.71 225.61L107.81 224.72L103.96 223.69L100.18 222.51L96.47 221.19L92.82 219.72L89.24 218.12L85.74 216.39L82.32 214.53L78.98 212.53L75.72 210.42L72.55 208.18L69.47 205.83L66.49 203.36L63.61 200.78L60.82 198.09L58.14 195.3L55.57 192.4L53.11 189.41L50.76 186.33L48.53 183.15L46.42 179.88L44.44 176.53L42.58 173.1L40.85 169.59L39.25 166L37.79 162.34L36.47 158.61L35.3 154.82L34.27 150.96L33.39 147.05L32.66 143.08L32.09 139.05L31.68 134.98L31.43 130.86L31.34 126.7L31.43 122.54L31.68 118.42L32.09 114.35L32.66 110.33L33.39 106.36L34.27 102.44L35.3 98.59L36.47 94.79L37.79 91.06L39.25 87.41L40.85 83.82L42.58 80.31L44.44 76.87L46.42 73.52L48.53 70.26L50.76 67.08L53.11 63.99L55.57 61L58.14 58.11L60.82 55.32L63.61 52.63L66.49 50.05L69.47 47.58L72.55 45.22L75.72 42.99L78.98 40.87L82.32 38.88L85.74 37.01L89.24 35.28L92.82 33.68L96.47 32.22L100.18 30.89L103.96 29.71L107.81 28.68L111.71 27.8L115.67 27.07L119.68 26.49L123.74 26.08L127.85 25.83L132 25.75L136.15 25.83L140.25 26.08ZM126.9 64.62L124.4 64.87L121.92 65.23L119.48 65.68L117.07 66.22L114.7 66.86L112.37 67.59L110.07 68.4L107.82 69.31L105.62 70.29L103.46 71.36L101.34 72.51L99.28 73.74L97.27 75.05L95.32 76.43L93.42 77.88L91.58 79.41L89.8 81L88.08 82.66L86.43 84.38L84.84 86.16L83.32 88.01L81.87 89.91L80.5 91.87L79.2 93.89L77.97 95.96L76.82 98.08L75.76 100.24L74.77 102.46L73.87 104.71L73.06 107.01L72.33 109.35L71.7 111.73L71.15 114.15L70.7 116.6L70.35 119.08L70.1 121.59L69.94 124.13L69.89 126.7L69.94 129.27L70.1 131.81L70.35 134.32L70.7 136.81L71.15 139.26L71.7 141.67L72.33 144.05L73.06 146.39L73.87 148.69L74.77 150.95L75.76 153.16L76.82 155.33L77.97 157.45L79.2 159.52L80.5 161.53L81.87 163.49L83.32 165.4L84.84 167.24L86.43 169.03L88.08 170.75L89.8 172.41L91.58 174L93.42 175.52L95.32 176.98L97.27 178.36L99.28 179.66L101.34 180.89L103.46 182.04L105.62 183.11L107.82 184.1L110.07 185L112.37 185.82L114.7 186.55L117.07 187.18L119.48 187.73L121.92 188.18L124.4 188.53L126.9 188.79L129.44 188.94L132 188.99L134.56 188.94L137.09 188.79L139.6 188.53L142.07 188.18L144.51 187.73L146.92 187.18L149.29 186.55L151.63 185.82L153.92 185L156.17 184.1L158.38 183.11L160.54 182.04L162.65 180.89L164.71 179.66L166.72 178.36L168.67 176.98L170.57 175.52L172.41 174L174.19 172.41L175.91 170.75L177.56 169.03L179.15 167.24L180.67 165.4L182.12 163.49L183.49 161.53L184.8 159.52L186.02 157.45L187.17 155.33L188.24 153.16L189.22 150.95L190.12 148.69L190.94 146.39L191.66 144.05L192.3 141.67L192.84 139.26L193.29 136.81L193.64 134.32L193.9 131.81L194.05 129.27L194.1 126.7L194.05 124.13L193.9 121.59L193.64 119.08L193.29 116.6L192.84 114.15L192.3 111.73L191.66 109.35L190.94 107.01L190.12 104.71L189.22 102.46L188.24 100.24L187.17 98.08L186.02 95.96L184.8 93.89L183.49 91.87L182.12 89.91L180.67 88.01L179.15 86.16L177.56 84.38L175.91 82.66L174.19 81L172.41 79.41L170.57 77.88L168.67 76.43L166.72 75.05L164.71 73.74L162.65 72.51L160.54 71.36L158.38 70.29L156.17 69.31L153.92 68.4L151.63 67.59L149.29 66.86L146.92 66.22L144.51 65.68L142.07 65.23L139.6 64.87L137.09 64.62L134.56 64.46L132 64.41L129.44 64.46L126.9 64.62Z" id="cwJN9uWZG"></path></defs><g><g><g><g><filter id="shadow4714862" x="1.34" y="-4.25" width="313.76" height="316.51" filterUnits="userSpaceOnUse" primitiveUnits="userSpaceOnUse"><feFlood></feFlood><feComposite in2="SourceAlpha" operator="in"></feComposite><feGaussianBlur stdDeviation="2.83"></feGaussianBlur><feOffset dx="6" dy="8" result="afterOffset"></feOffset><feFlood flood-color="#000000" flood-opacity="0.5"></feFlood><feComposite in2="afterOffset" operator="in"></feComposite><feMorphology operator="dilate" radius="1"></feMorphology><feComposite in2="SourceAlpha" operator="out"></feComposite></filter><path d="M140.25 26.08L144.31 26.49L148.32 27.07L152.28 27.8L156.18 28.68L160.03 29.71L163.81 30.89L167.53 32.22L171.17 33.68L174.75 35.28L178.25 37.01L181.67 38.88L185.02 40.87L188.27 42.99L191.44 45.22L194.52 47.58L197.5 50.05L200.38 52.63L203.17 55.32L205.85 58.11L208.42 61L210.88 63.99L213.23 67.08L215.46 70.26L217.57 73.52L219.56 76.87L221.41 80.31L223.14 83.82L224.74 87.41L226.2 91.06L227.52 94.79L228.69 98.59L229.72 102.44L230.6 106.36L231.33 110.33L231.9 114.35L232.32 118.42L232.57 122.54L232.65 126.7L232.57 130.86L232.32 134.98L231.9 139.05L231.33 143.08L230.6 147.05L229.72 150.96L228.69 154.82L227.52 158.61L226.2 162.34L224.74 166L223.14 169.59L221.41 173.1L219.56 176.53L217.57 179.88L215.53 183.04L279.1 246.8L251.73 274.25L188.16 210.49L185.02 212.53L181.67 214.53L178.25 216.39L174.75 218.12L171.17 219.72L167.53 221.19L163.81 222.51L160.03 223.69L156.18 224.72L152.28 225.61L148.32 226.34L144.31 226.91L140.25 227.32L136.15 227.57L132 227.66L127.85 227.57L123.74 227.32L119.68 226.91L115.67 226.34L111.71 225.61L107.81 224.72L103.96 223.69L100.18 222.51L96.47 221.19L92.82 219.72L89.24 218.12L85.74 216.39L82.32 214.53L78.98 212.53L75.72 210.42L72.55 208.18L69.47 205.83L66.49 203.36L63.61 200.78L60.82 198.09L58.14 195.3L55.57 192.4L53.11 189.41L50.76 186.33L48.53 183.15L46.42 179.88L44.44 176.53L42.58 173.1L40.85 169.59L39.25 166L37.79 162.34L36.47 158.61L35.3 154.82L34.27 150.96L33.39 147.05L32.66 143.08L32.09 139.05L31.68 134.98L31.43 130.86L31.34 126.7L31.43 122.54L31.68 118.42L32.09 114.35L32.66 110.33L33.39 106.36L34.27 102.44L35.3 98.59L36.47 94.79L37.79 91.06L39.25 87.41L40.85 83.82L42.58 80.31L44.44 76.87L46.42 73.52L48.53 70.26L50.76 67.08L53.11 63.99L55.57 61L58.14 58.11L60.82 55.32L63.61 52.63L66.49 50.05L69.47 47.58L72.55 45.22L75.72 42.99L78.98 40.87L82.32 38.88L85.74 37.01L89.24 35.28L92.82 33.68L96.47 32.22L100.18 30.89L103.96 29.71L107.81 28.68L111.71 27.8L115.67 27.07L119.68 26.49L123.74 26.08L127.85 25.83L132 25.75L136.15 25.83L140.25 26.08ZM126.9 64.62L124.4 64.87L121.92 65.23L119.48 65.68L117.07 66.22L114.7 66.86L112.37 67.59L110.07 68.4L107.82 69.31L105.62 70.29L103.46 71.36L101.34 72.51L99.28 73.74L97.27 75.05L95.32 76.43L93.42 77.88L91.58 79.41L89.8 81L88.08 82.66L86.43 84.38L84.84 86.16L83.32 88.01L81.87 89.91L80.5 91.87L79.2 93.89L77.97 95.96L76.82 98.08L75.76 100.24L74.77 102.46L73.87 104.71L73.06 107.01L72.33 109.35L71.7 111.73L71.15 114.15L70.7 116.6L70.35 119.08L70.1 121.59L69.94 124.13L69.89 126.7L69.94 129.27L70.1 131.81L70.35 134.32L70.7 136.81L71.15 139.26L71.7 141.67L72.33 144.05L73.06 146.39L73.87 148.69L74.77 150.95L75.76 153.16L76.82 155.33L77.97 157.45L79.2 159.52L80.5 161.53L81.87 163.49L83.32 165.4L84.84 167.24L86.43 169.03L88.08 170.75L89.8 172.41L91.58 174L93.42 175.52L95.32 176.98L97.27 178.36L99.28 179.66L101.34 180.89L103.46 182.04L105.62 183.11L107.82 184.1L110.07 185L112.37 185.82L114.7 186.55L117.07 187.18L119.48 187.73L121.92 188.18L124.4 188.53L126.9 188.79L129.44 188.94L132 188.99L134.56 188.94L137.09 188.79L139.6 188.53L142.07 188.18L144.51 187.73L146.92 187.18L149.29 186.55L151.63 185.82L153.92 185L156.17 184.1L158.38 183.11L160.54 182.04L162.65 180.89L164.71 179.66L166.72 178.36L168.67 176.98L170.57 175.52L172.41 174L174.19 172.41L175.91 170.75L177.56 169.03L179.15 167.24L180.67 165.4L182.12 163.49L183.49 161.53L184.8 159.52L186.02 157.45L187.17 155.33L188.24 153.16L189.22 150.95L190.12 148.69L190.94 146.39L191.66 144.05L192.3 141.67L192.84 139.26L193.29 136.81L193.64 134.32L193.9 131.81L194.05 129.27L194.1 126.7L194.05 124.13L193.9 121.59L193.64 119.08L193.29 116.6L192.84 114.15L192.3 111.73L191.66 109.35L190.94 107.01L190.12 104.71L189.22 102.46L188.24 100.24L187.17 98.08L186.02 95.96L184.8 93.89L183.49 91.87L182.12 89.91L180.67 88.01L179.15 86.16L177.56 84.38L175.91 82.66L174.19 81L172.41 79.41L170.57 77.88L168.67 76.43L166.72 75.05L164.71 73.74L162.65 72.51L160.54 71.36L158.38 70.29L156.17 69.31L153.92 68.4L151.63 67.59L149.29 66.86L146.92 66.22L144.51 65.68L142.07 65.23L139.6 64.87L137.09 64.62L134.56 64.46L132 64.41L129.44 64.46L126.9 64.62Z" id="c15iJpjBig" fill="white" fill-opacity="1" filter="url(#shadow4714862)"></path></g><use xlink:href="#cwJN9uWZG" opacity="1" fill="#ff6210" fill-opacity="1"></use><g><use xlink:href="#cwJN9uWZG" opacity="1" fill-opacity="0" stroke="#000000" stroke-width="1" stroke-opacity="1"></use></g></g></g></g></svg>