<?xml version="1.0" encoding="UTF-8" standalone="no"?>
<!DOCTYPE svg PUBLIC "-//W3C//DTD SVG 1.1//EN" "http://www.w3.org/Graphics/SVG/1.1/DTD/svg11.dtd">
<svg version="1.1" xmlns="http://www.w3.org/2000/svg" xmlns:xlink="http://www.w3.org/1999/xlink" preserveAspectRatio="xMidYMid meet" viewBox="0 0 640 640" width="640" height="640"><defs><path d="M51.91 104.75L120 104.75L120 343.76L51.91 343.76L51.91 104.75Z" id="baWBWrbTv"></path><path d="M131.42 199.15L199.5 199.15L199.5 438.16L131.42 438.16L131.42 199.15Z" id="e1F9MYSrWP"></path><path d="M210.92 104.75L279.01 104.75L279.01 343.76L210.92 343.76L210.92 104.75Z" id="bif1ZQg7w"></path><path d="M291.13 154.61L359.22 154.61L359.22 393.62L291.13 393.62L291.13 154.61Z" id="cNvW1u2z"></path><path d="M367.8 57.52L435.89 57.52L435.89 296.52L367.8 296.52L367.8 57.52Z" id="cfEeGuAf8"></path><path d="M445.89 221.42L513.97 221.42L513.97 460.43L445.89 460.43L445.89 221.42Z" id="h3qAMUaVID"></path><path d="M523.05 57.52L591.13 57.52L591.13 296.52L523.05 296.52L523.05 57.52Z" id="c4GZmVxIrj"></path></defs><g><g><g><use xlink:href="#baWBWrbTv" opacity="1" fill="#0e61c9" fill-opacity="1"></use></g><g><use xlink:href="#e1F9MYSrWP" opacity="1" fill="#0eaac9" fill-opacity="1"></use></g><g><use xlink:href="#bif1ZQg7w" opacity="1" fill="#2b0ec9" fill-opacity="1"></use></g><g><use xlink:href="#cNvW1u2z" opacity="1" fill="#a80ec9" fill-opacity="1"></use></g><g><use xlink:href="#cfEeGuAf8" opacity="1" fill="#810ec9" fill-opacity="1"></use></g><g><use xlink:href="#h3qAMUaVID" opacity="1" fill="#4c0ec9" fill-opacity="1"></use></g><g><use xlink:href="#c4GZmVxIrj" opacity="1" fill="#2b0ec9" fill-opacity="1"></use></g></g></g></svg>