<svg data-v-423bf9ae="" xmlns="http://www.w3.org/2000/svg" viewBox="0 0 421.2256421112864 163" class="iconAbove"><!----><!----><!----><g data-v-423bf9ae="" id="1b0fa492-dbf6-45c4-925c-207726c59e37" fill="#000000" transform="matrix(5.836575485636349,0,0,5.836575485636349,-2.39298953384386,88.23346633409301)"><path d="M2.69 12.81L2.69 12.81L2.69 12.81Q1.61 12.81 1.01 12.23L1.01 12.23L1.01 12.23Q0.41 11.64 0.41 10.58L0.41 10.58L0.41 10.58Q0.41 9.43 1.16 8.83L1.16 8.83L1.16 8.83Q1.91 8.23 3.33 8.22L3.33 8.22L4.92 8.19L4.92 7.81L4.92 7.81Q4.92 7.09 4.67 6.74L4.67 6.74L4.67 6.74Q4.42 6.38 3.84 6.38L3.84 6.38L3.84 6.38Q3.31 6.38 3.06 6.63L3.06 6.63L3.06 6.63Q2.81 6.87 2.75 7.43L2.75 7.43L0.75 7.33L0.75 7.33Q0.93 6.25 1.73 5.70L1.73 5.70L1.73 5.70Q2.54 5.14 3.92 5.14L3.92 5.14L3.92 5.14Q5.33 5.14 6.08 5.83L6.08 5.83L6.08 5.83Q6.84 6.52 6.84 7.79L6.84 7.79L6.84 10.49L6.84 10.49Q6.84 11.11 6.98 11.34L6.98 11.34L6.98 11.34Q7.12 11.58 7.45 11.58L7.45 11.58L7.45 11.58Q7.67 11.58 7.88 11.54L7.88 11.54L7.88 12.58L7.88 12.58Q7.70 12.62 7.57 12.65L7.57 12.65L7.57 12.65Q7.43 12.69 7.29 12.71L7.29 12.71L7.29 12.71Q7.16 12.73 7.00 12.74L7.00 12.74L7.00 12.74Q6.85 12.76 6.64 12.76L6.64 12.76L6.64 12.76Q5.92 12.76 5.57 12.40L5.57 12.40L5.57 12.40Q5.23 12.04 5.16 11.35L5.16 11.35L5.12 11.35L5.12 11.35Q4.31 12.81 2.69 12.81ZM4.92 9.63L4.92 9.25L3.94 9.26L3.94 9.26Q3.27 9.29 2.99 9.41L2.99 9.41L2.99 9.41Q2.71 9.53 2.56 9.78L2.56 9.78L2.56 9.78Q2.41 10.02 2.41 10.43L2.41 10.43L2.41 10.43Q2.41 10.96 2.66 11.21L2.66 11.21L2.66 11.21Q2.90 11.47 3.30 11.47L3.30 11.47L3.30 11.47Q3.75 11.47 4.13 11.22L4.13 11.22L4.13 11.22Q4.50 10.98 4.71 10.54L4.71 10.54L4.71 10.54Q4.92 10.11 4.92 9.63L4.92 9.63ZM10.68 12.67L8.76 12.67L8.76 2.53L10.68 2.53L10.68 12.67ZM14.55 12.80L14.55 12.80L14.55 12.80Q13.70 12.80 13.24 12.34L13.24 12.34L13.24 12.34Q12.78 11.87 12.78 10.94L12.78 10.94L12.78 6.58L11.85 6.58L11.85 5.28L12.88 5.28L13.48 3.54L14.68 3.54L14.68 5.28L16.08 5.28L16.08 6.58L14.68 6.58L14.68 10.42L14.68 10.42Q14.68 10.96 14.89 11.21L14.89 11.21L14.89 11.21Q15.09 11.47 15.52 11.47L15.52 11.47L15.52 11.47Q15.75 11.47 16.17 11.38L16.17 11.38L16.17 12.56L16.17 12.56Q15.46 12.80 14.55 12.80ZM19.24 12.67L17.32 12.67L17.32 7.01L17.32 7.01Q17.32 6.41 17.30 6.00L17.30 6.00L17.30 6.00Q17.28 5.59 17.26 5.28L17.26 5.28L19.09 5.28L19.09 5.28Q19.11 5.40 19.15 6.03L19.15 6.03L19.15 6.03Q19.18 6.65 19.18 6.86L19.18 6.86L19.21 6.86L19.21 6.86Q19.49 6.08 19.71 5.76L19.71 5.76L19.71 5.76Q19.93 5.44 20.23 5.29L20.23 5.29L20.23 5.29Q20.53 5.13 20.98 5.13L20.98 5.13L20.98 5.13Q21.35 5.13 21.57 5.24L21.57 5.24L21.57 6.84L21.57 6.84Q21.11 6.74 20.75 6.74L20.75 6.74L20.75 6.74Q20.04 6.74 19.64 7.32L19.64 7.32L19.64 7.32Q19.24 7.90 19.24 9.04L19.24 9.04L19.24 12.67ZM30.95 12.67L28.59 12.67L24.39 5.26L24.39 5.26Q24.51 6.34 24.51 6.99L24.51 6.99L24.51 12.67L22.72 12.67L22.72 3.04L25.03 3.04L29.29 10.52L29.29 10.52Q29.16 9.49 29.16 8.64L29.16 8.64L29.16 3.04L30.95 3.04L30.95 12.67ZM41.64 12.67L39.64 12.67L38.79 10.21L35.12 10.21L34.26 12.67L32.25 12.67L35.76 3.04L38.14 3.04L41.64 12.67ZM37.09 5.00L36.95 4.53L36.91 4.68L36.91 4.68Q36.84 4.92 36.74 5.24L36.74 5.24L36.74 5.24Q36.65 5.55 35.57 8.70L35.57 8.70L38.34 8.70L37.39 5.93L37.09 5.00ZM50.41 4.60L47.29 4.60L47.29 12.67L45.27 12.67L45.27 4.60L42.16 4.60L42.16 3.04L50.41 3.04L50.41 4.60ZM53.51 12.67L51.50 12.67L51.50 3.04L53.51 3.04L53.51 12.67ZM63.69 3.04L60.15 12.67L58.11 12.67L54.54 3.04L56.65 3.04L58.63 9.23L58.63 9.23Q58.82 9.83 59.14 11.05L59.14 11.05L59.28 10.46L59.63 9.23L61.61 3.04L63.69 3.04ZM72.58 12.67L64.72 12.67L64.72 3.04L72.30 3.04L72.30 4.60L66.74 4.60L66.74 7.02L71.88 7.02L71.88 8.58L66.74 8.58L66.74 11.12L72.58 11.12L72.58 12.67Z"></path></g><defs data-v-423bf9ae=""><linearGradient data-v-423bf9ae="" gradientTransform="rotate(25)" id="44686d7d-79c2-4b91-b55b-9a425481ae1a" x1="0%" y1="0%" x2="100%" y2="0%"><stop data-v-423bf9ae="" offset="0%" style="stop-color: rgb(135, 84, 78); stop-opacity: 1;"></stop><stop data-v-423bf9ae="" offset="100%" style="stop-color: rgb(135, 84, 78); stop-opacity: 1;"></stop></linearGradient></defs><g data-v-423bf9ae="" id="85c405b4-4078-49b7-92f4-9756b6ed5afa" transform="matrix(1.125,0,0,1.125,154.75,-11.25)" stroke="none" fill="url(#44686d7d-79c2-4b91-b55b-9a425481ae1a)"><path d="M10 10h21.328v51.562H10zM68.662 64.219H90V90H68.662zM10 69.375h21.328V90H10zM39.863 10h21.328v25.781H39.863zM39.863 43.594h21.328V90H39.863zM68.662 10H90v46.406H68.662z"></path></g><!----></svg>